<svg width="154" height="40" viewBox="0 0 154 40" fill="none" xmlns="http://www.w3.org/2000/svg">
<rect width="154" height="40" rx="20" fill="#FF0000"/>
<path d="M25.6803 26.128C25.0936 26.128 24.5443 26.08 24.0323 25.984C23.5203 25.8773 23.0456 25.7173 22.6083 25.504C22.1709 25.28 21.7763 25.008 21.4243 24.688L21.9203 23.68C22.4963 24.16 23.0723 24.5013 23.6483 24.704C24.2349 24.9067 24.9176 25.008 25.6963 25.008C26.6029 25.008 27.3069 24.832 27.8083 24.48C28.3096 24.1173 28.5603 23.6107 28.5603 22.96C28.5603 22.5653 28.4323 22.2507 28.1763 22.016C27.9309 21.7707 27.5896 21.5787 27.1523 21.44C26.7256 21.2907 26.2403 21.152 25.6963 21.024C25.1523 20.9067 24.6349 20.7733 24.1443 20.624C23.6536 20.464 23.2163 20.2667 22.8323 20.032C22.4589 19.7973 22.1656 19.4987 21.9523 19.136C21.7389 18.7733 21.6323 18.32 21.6323 17.776C21.6323 17.1253 21.8029 16.5547 22.1443 16.064C22.4856 15.5627 22.9656 15.1733 23.5843 14.896C24.2029 14.6187 24.9336 14.48 25.7763 14.48C26.2989 14.48 26.8003 14.5387 27.2803 14.656C27.7603 14.7627 28.2029 14.9227 28.6083 15.136C29.0243 15.3493 29.3923 15.6107 29.7123 15.92L29.2003 16.928C28.6776 16.4693 28.1389 16.1333 27.5843 15.92C27.0296 15.7067 26.4269 15.6 25.7763 15.6C24.8909 15.6 24.1976 15.7867 23.6963 16.16C23.1949 16.5333 22.9443 17.056 22.9443 17.728C22.9443 18.144 23.0563 18.48 23.2803 18.736C23.5043 18.992 23.8189 19.2 24.2243 19.36C24.6296 19.5093 25.0936 19.648 25.6163 19.776C26.1709 19.904 26.7043 20.0427 27.2163 20.192C27.7283 20.3413 28.1816 20.528 28.5763 20.752C28.9816 20.9653 29.3016 21.248 29.5363 21.6C29.7709 21.9413 29.8883 22.3787 29.8883 22.912C29.8883 23.5627 29.7176 24.128 29.3763 24.608C29.0349 25.088 28.5496 25.4613 27.9203 25.728C27.2909 25.9947 26.5443 26.128 25.6803 26.128ZM34.721 26.112C33.761 26.112 33.0357 25.8453 32.545 25.312C32.065 24.7787 31.825 23.9893 31.825 22.944V17.952H33.121V22.912C33.121 23.6373 33.2703 24.1707 33.569 24.512C33.8677 24.8533 34.321 25.024 34.929 25.024C35.6437 25.024 36.2197 24.7947 36.657 24.336C37.0943 23.8773 37.313 23.264 37.313 22.496V17.952H38.609V26H37.345V24.256L37.537 24.16C37.3237 24.8 36.961 25.2853 36.449 25.616C35.9477 25.9467 35.3717 26.112 34.721 26.112ZM41.1074 26V14.224H42.4034V20.016L42.2274 19.856C42.4087 19.1947 42.7554 18.6827 43.2674 18.32C43.7794 17.9467 44.398 17.76 45.1234 17.76C45.838 17.76 46.462 17.9307 46.9954 18.272C47.5287 18.6133 47.9447 19.0933 48.2434 19.712C48.5527 20.3307 48.7074 21.0613 48.7074 21.904C48.7074 22.7467 48.5527 23.488 48.2434 24.128C47.9447 24.7573 47.5234 25.248 46.9794 25.6C46.446 25.9413 45.8274 26.112 45.1234 26.112C44.398 26.112 43.7794 25.9307 43.2674 25.568C42.7554 25.2053 42.4087 24.688 42.2274 24.016L42.4034 23.84V26H41.1074ZM44.8834 25.04C45.662 25.04 46.27 24.768 46.7074 24.224C47.1447 23.6693 47.3634 22.896 47.3634 21.904C47.3634 20.9333 47.1447 20.1813 46.7074 19.648C46.27 19.1147 45.662 18.848 44.8834 18.848C44.0834 18.848 43.47 19.12 43.0434 19.664C42.6167 20.1973 42.4034 20.9547 42.4034 21.936C42.4034 22.928 42.6167 23.696 43.0434 24.24C43.47 24.7733 44.0834 25.04 44.8834 25.04ZM53.4211 26.112C52.0665 26.112 50.9945 25.7653 50.2051 25.072L50.6371 24.112C51.0638 24.4427 51.5011 24.688 51.9491 24.848C52.4078 24.9973 52.9145 25.072 53.4691 25.072C54.0771 25.072 54.5358 24.9707 54.8451 24.768C55.1651 24.5547 55.3251 24.2507 55.3251 23.856C55.3251 23.536 55.2185 23.2853 55.0051 23.104C54.7918 22.912 54.4398 22.7573 53.9491 22.64L52.5891 22.32C51.9171 22.1707 51.3945 21.904 51.0211 21.52C50.6585 21.136 50.4771 20.6773 50.4771 20.144C50.4771 19.6747 50.6051 19.264 50.8611 18.912C51.1171 18.5493 51.4745 18.2667 51.9331 18.064C52.3918 17.8613 52.9358 17.76 53.5651 17.76C54.1305 17.76 54.6638 17.8507 55.1651 18.032C55.6665 18.2133 56.0878 18.4747 56.4291 18.816L55.9971 19.76C55.6131 19.44 55.2185 19.2053 54.8131 19.056C54.4185 18.896 54.0025 18.816 53.5651 18.816C52.9891 18.816 52.5411 18.928 52.2211 19.152C51.9118 19.376 51.7571 19.68 51.7571 20.064C51.7571 20.3947 51.8531 20.656 52.0451 20.848C52.2478 21.04 52.5678 21.1893 53.0051 21.296L54.3651 21.632C55.1225 21.792 55.6771 22.0587 56.0291 22.432C56.3918 22.7947 56.5731 23.2587 56.5731 23.824C56.5731 24.5173 56.2905 25.072 55.7251 25.488C55.1598 25.904 54.3918 26.112 53.4211 26.112ZM62.0146 26.112C61.2253 26.112 60.5426 25.9413 59.9666 25.6C59.3906 25.2587 58.9426 24.7787 58.6226 24.16C58.3133 23.5413 58.1586 22.8107 58.1586 21.968C58.1586 21.136 58.3186 20.4053 58.6386 19.776C58.9586 19.136 59.412 18.64 59.9986 18.288C60.5853 17.936 61.2786 17.76 62.0786 17.76C62.6226 17.76 63.1453 17.856 63.6466 18.048C64.1586 18.2293 64.58 18.4853 64.9106 18.816L64.4786 19.776C64.084 19.4667 63.6946 19.2373 63.3106 19.088C62.9373 18.928 62.548 18.848 62.1426 18.848C61.332 18.848 60.6866 19.12 60.2066 19.664C59.7373 20.208 59.5026 20.976 59.5026 21.968C59.5026 22.9493 59.7373 23.7067 60.2066 24.24C60.676 24.7733 61.3213 25.04 62.1426 25.04C62.5373 25.04 62.9266 24.9653 63.3106 24.816C63.6946 24.656 64.084 24.4213 64.4786 24.112L64.9106 25.072C64.5693 25.392 64.1373 25.648 63.6146 25.84C63.1026 26.0213 62.5693 26.112 62.0146 26.112ZM66.5605 26V20.208C66.5605 19.8347 66.5498 19.4613 66.5285 19.088C66.5178 18.704 66.4858 18.3253 66.4325 17.952H67.6645L67.8405 19.936L67.6645 19.888C67.8138 19.184 68.1338 18.656 68.6245 18.304C69.1258 17.9413 69.6858 17.76 70.3045 17.76C70.4432 17.76 70.5712 17.7707 70.6885 17.792C70.8165 17.8027 70.9338 17.824 71.0405 17.856L71.0085 19.04C70.7632 18.9547 70.4805 18.912 70.1605 18.912C69.6058 18.912 69.1578 19.0347 68.8165 19.28C68.4858 19.5253 68.2405 19.84 68.0805 20.224C67.9312 20.5973 67.8565 20.992 67.8565 21.408V26H66.5605ZM72.3574 26V17.952H73.6534V26H72.3574ZM72.2294 14.544H73.8134V16.016H72.2294V14.544ZM76.1699 26V14.224H77.4659V20.016L77.2899 19.856C77.4712 19.1947 77.8179 18.6827 78.3299 18.32C78.8419 17.9467 79.4605 17.76 80.1859 17.76C80.9005 17.76 81.5245 17.9307 82.0579 18.272C82.5912 18.6133 83.0072 19.0933 83.3059 19.712C83.6152 20.3307 83.7699 21.0613 83.7699 21.904C83.7699 22.7467 83.6152 23.488 83.3059 24.128C83.0072 24.7573 82.5859 25.248 82.0419 25.6C81.5085 25.9413 80.8899 26.112 80.1859 26.112C79.4605 26.112 78.8419 25.9307 78.3299 25.568C77.8179 25.2053 77.4712 24.688 77.2899 24.016L77.4659 23.84V26H76.1699ZM79.9459 25.04C80.7245 25.04 81.3325 24.768 81.7699 24.224C82.2072 23.6693 82.4259 22.896 82.4259 21.904C82.4259 20.9333 82.2072 20.1813 81.7699 19.648C81.3325 19.1147 80.7245 18.848 79.9459 18.848C79.1459 18.848 78.5325 19.12 78.1059 19.664C77.6792 20.1973 77.4659 20.9547 77.4659 21.936C77.4659 22.928 77.6792 23.696 78.1059 24.24C78.5325 24.7733 79.1459 25.04 79.9459 25.04ZM92.3556 25.04C92.0036 25.3707 91.5503 25.632 90.9956 25.824C90.4516 26.016 89.8916 26.112 89.3156 26.112C88.4836 26.112 87.7636 25.9467 87.1556 25.616C86.5583 25.2853 86.0943 24.8107 85.7636 24.192C85.4436 23.5627 85.2836 22.816 85.2836 21.952C85.2836 21.12 85.4436 20.3893 85.7636 19.76C86.0836 19.1307 86.5263 18.64 87.0916 18.288C87.6676 17.936 88.329 17.76 89.0756 17.76C89.7903 17.76 90.4036 17.92 90.9156 18.24C91.4276 18.5493 91.817 18.9973 92.0836 19.584C92.361 20.1707 92.4996 20.8747 92.4996 21.696V21.936H86.4196V21.088H91.7636L91.3476 21.68C91.369 20.7413 91.1823 20.0213 90.7876 19.52C90.4036 19.0187 89.8383 18.768 89.0916 18.768C88.313 18.768 87.6996 19.0453 87.2516 19.6C86.8143 20.144 86.5956 20.9013 86.5956 21.872C86.5956 22.9173 86.825 23.7067 87.2836 24.24C87.753 24.7733 88.4356 25.04 89.3316 25.04C89.801 25.04 90.249 24.9653 90.6756 24.816C91.113 24.656 91.529 24.416 91.9236 24.096L92.3556 25.04ZM98.7186 26V25.008L102.703 20.592C103.236 19.9947 103.625 19.456 103.871 18.976C104.116 18.496 104.239 18.016 104.239 17.536C104.239 16.9067 104.057 16.4267 103.695 16.096C103.332 15.7547 102.815 15.584 102.143 15.584C101.588 15.584 101.044 15.696 100.511 15.92C99.9773 16.1333 99.444 16.4587 98.9106 16.896L98.4146 15.888C98.8626 15.4613 99.428 15.12 100.111 14.864C100.793 14.608 101.481 14.48 102.175 14.48C102.868 14.48 103.465 14.6027 103.967 14.848C104.479 15.0827 104.873 15.424 105.151 15.872C105.428 16.32 105.567 16.8533 105.567 17.472C105.567 18.1227 105.417 18.752 105.119 19.36C104.831 19.9573 104.345 20.6293 103.663 21.376L99.8226 25.536L99.7266 24.896H106.047V26H98.7186ZM108.008 24.352H109.656V26H108.008V24.352ZM115.376 26.112C114.64 26.112 113.93 25.9893 113.248 25.744C112.576 25.4987 112.005 25.152 111.536 24.704L112.048 23.696C112.56 24.1333 113.088 24.464 113.632 24.688C114.176 24.9013 114.746 25.008 115.344 25.008C116.154 25.008 116.768 24.8267 117.184 24.464C117.61 24.1013 117.824 23.568 117.824 22.864C117.824 22.16 117.605 21.6373 117.168 21.296C116.73 20.944 116.074 20.768 115.2 20.768H113.888V19.664H114.944C115.786 19.664 116.432 19.4773 116.88 19.104C117.328 18.7307 117.552 18.1973 117.552 17.504C117.552 16.8853 117.365 16.4107 116.992 16.08C116.629 15.7493 116.112 15.584 115.44 15.584C114.874 15.584 114.325 15.696 113.792 15.92C113.258 16.1333 112.73 16.4587 112.208 16.896L111.712 15.888C112.17 15.4507 112.736 15.1093 113.408 14.864C114.08 14.608 114.773 14.48 115.488 14.48C116.17 14.48 116.768 14.6027 117.28 14.848C117.792 15.0827 118.181 15.4187 118.448 15.856C118.725 16.2933 118.864 16.8107 118.864 17.408C118.864 18.112 118.677 18.7147 118.304 19.216C117.941 19.7067 117.44 20.0427 116.8 20.224L116.752 20.064C117.52 20.224 118.106 20.5493 118.512 21.04C118.917 21.5307 119.12 22.1547 119.12 22.912C119.12 23.904 118.784 24.688 118.112 25.264C117.44 25.8293 116.528 26.112 115.376 26.112ZM121.529 26V20.208C121.529 19.8347 121.519 19.4613 121.497 19.088C121.487 18.704 121.455 18.3253 121.401 17.952H122.633L122.777 19.616L122.617 19.728C122.809 19.0987 123.14 18.6133 123.609 18.272C124.089 17.9307 124.655 17.76 125.305 17.76C126.084 17.76 126.687 17.952 127.113 18.336C127.551 18.72 127.828 19.3067 127.945 20.096L127.561 19.888C127.732 19.2373 128.073 18.72 128.585 18.336C129.108 17.952 129.732 17.76 130.457 17.76C131.343 17.76 132.009 18.0267 132.457 18.56C132.905 19.0827 133.129 19.8773 133.129 20.944V26H131.833V21.008C131.833 20.2613 131.7 19.7173 131.433 19.376C131.167 19.024 130.745 18.848 130.169 18.848C129.497 18.848 128.964 19.0773 128.569 19.536C128.185 19.9947 127.993 20.6187 127.993 21.408V26H126.697V21.008C126.697 20.2613 126.559 19.7173 126.281 19.376C126.015 19.024 125.593 18.848 125.017 18.848C124.335 18.848 123.796 19.0773 123.401 19.536C123.017 19.9947 122.825 20.6187 122.825 21.408V26H121.529Z" fill="white"/>
</svg>
